<?xml version="1.0" encoding="UTF-8"?>
<svg version="1.1" xmlns="http://www.w3.org/2000/svg" width="128" height="128">
<path d="M0 0 C6.27 0 12.54 0 19 0 C19 1.65 19 3.3 19 5 C20.65 5 22.3 5 24 5 C24 6.32 24 7.64 24 9 C27.465 8.505 27.465 8.505 31 8 C31.33 6.68 31.66 5.36 32 4 C35.70831663 3.97081126 39.41660342 3.95313782 43.125 3.9375 C44.17171875 3.92912109 45.2184375 3.92074219 46.296875 3.91210938 C51.3090905 3.89624793 56.07665912 3.91822787 61 5 C61 6.32 61 7.64 61 9 C63.31 9 65.62 9 68 9 C67.505 7.515 67.505 7.515 67 6 C67.61875 5.7525 68.2375 5.505 68.875 5.25 C71.45868886 3.98960746 71.45868886 3.98960746 73 0 C79.27 0 85.54 0 92 0 C92 1.65 92 3.3 92 5 C93.32 5 94.64 5 96 5 C96 6.32 96 7.64 96 9 C97.65 9.33 99.3 9.66 101 10 C101 16.6 101 23.2 101 30 C99.35 29.67 97.7 29.34 96 29 C96 30.65 96 32.3 96 34 C94.68 34 93.36 34 92 34 C92 35.98 92 37.96 92 40 C93.32 40 94.64 40 96 40 C97.50296 50.01973334 96.64602167 59.93612504 96 70 C94.68 70 93.36 70 92 70 C92 72.97 92 75.94 92 79 C90.68 79 89.36 79 88 79 C88 80.32 88 81.64 88 83 C86.35 83 84.7 83 83 83 C83 83.99 83 84.98 83 86 C84.65 86.33 86.3 86.66 88 87 C88 88.32 88 89.64 88 91 C89.32 91 90.64 91 92 91 C92 92.32 92 93.64 92 95 C93.32 95 94.64 95 96 95 C96 96.65 96 98.3 96 100 C97.65 100 99.3 100 101 100 C101 101.65 101 103.3 101 105 C64.7 105 28.4 105 -9 105 C-9 103.35 -9 101.7 -9 100 C-7.68 100 -6.36 100 -5 100 C-4.67 98.35 -4.34 96.7 -4 95 C-2.515 94.505 -2.515 94.505 -1 94 C-0.26676204 91.98491642 -0.26676204 91.98491642 0 90 C1.32 90 2.64 90 4 90 C4 88.68 4 87.36 4 86 C5.32 86 6.64 86 8 86 C8 85.01 8 84.02 8 83 C6.68 83 5.36 83 4 83 C4 81.68 4 80.36 4 79 C2.68 79 1.36 79 0 79 C0 76.03 0 73.06 0 70 C-1.65 70 -3.3 70 -5 70 C-5.19747891 66.10460543 -5.38123029 62.20867984 -5.5625 58.3125 C-5.61857422 57.20970703 -5.67464844 56.10691406 -5.73242188 54.97070312 C-5.78076172 53.90400391 -5.82910156 52.83730469 -5.87890625 51.73828125 C-5.9260376 50.75899658 -5.97316895 49.77971191 -6.02172852 48.77075195 C-6.00032994 46.04207295 -5.62794508 43.64920937 -5 41 C-3.68 41 -2.36 41 -1 41 C-1 38.36 -1 35.72 -1 33 C-2.98 33.495 -2.98 33.495 -5 34 C-5 32.35 -5 30.7 -5 29 C-6.32 29.33 -7.64 29.66 -9 30 C-10.20217503 27.59564994 -10.03897118 26.31618631 -9.87890625 23.6484375 C-9.83056641 22.79765625 -9.78222656 21.946875 -9.73242188 21.0703125 C-9.67634766 20.18085937 -9.62027344 19.29140625 -9.5625 18.375 C-9.51029297 17.4778125 -9.45808594 16.580625 -9.40429688 15.65625 C-9.2744565 13.43715988 -9.13948661 11.21850129 -9 9 C-7.68 8.67 -6.36 8.34 -5 8 C-5 7.01 -5 6.02 -5 5 C-3.35 5 -1.7 5 0 5 C0 3.35 0 1.7 0 0 Z " fill="#914C17" transform="translate(18,13)"/>
<path d="M0 0 C9.24 0 18.48 0 28 0 C28 1.65 28 3.3 28 5 C30.97 5 33.94 5 37 5 C37 6.65 37 8.3 37 10 C38.32 10 39.64 10 41 10 C41 11.32 41 12.64 41 14 C41.99 14.33 42.98 14.66 44 15 C43.01 15.99 42.02 16.98 41 18 C42.98 18.495 42.98 18.495 45 19 C45 19.99 45 20.98 45 22 C41.04 22.495 41.04 22.495 37 23 C37 25.64 37 28.28 37 31 C34.03 31.33 31.06 31.66 28 32 C27.67 34.64 27.34 37.28 27 40 C25.68 40 24.36 40 23 40 C23 41.65 23 43.3 23 45 C17.06 45 11.12 45 5 45 C5 47.97 5 50.94 5 54 C6.32 54 7.64 54 9 54 C9 55.65 9 57.3 9 59 C10.32 59 11.64 59 13 59 C13 61.64 13 64.28 13 67 C10.36 67 7.72 67 5 67 C5 65.68 5 64.36 5 63 C3.35 63 1.7 63 0 63 C0 64.65 0 66.3 0 68 C-1.65 68 -3.3 68 -5 68 C-5 62.06 -5 56.12 -5 50 C-2.525 49.505 -2.525 49.505 0 49 C0 43.39 0 37.78 0 32 C-2.97 32 -5.94 32 -9 32 C-9 37.61 -9 43.22 -9 49 C-11.64 49.66 -14.28 50.32 -17 51 C-17.33 53.31 -17.66 55.62 -18 58 C-19.65 58 -21.3 58 -23 58 C-23 56.68 -23 55.36 -23 54 C-24.32 54 -25.64 54 -27 54 C-27.02913821 50.4375173 -27.04684529 46.87506546 -27.0625 43.3125 C-27.07087891 42.30509766 -27.07925781 41.29769531 -27.08789062 40.25976562 C-27.09272461 38.79506836 -27.09272461 38.79506836 -27.09765625 37.30078125 C-27.10289307 36.40528564 -27.10812988 35.50979004 -27.11352539 34.5871582 C-26.99840198 31.96358241 -26.58234285 29.55706947 -26 27 C-25.01 27 -24.02 27 -23 27 C-22.505 22.545 -22.505 22.545 -22 18 C-20.68 18 -19.36 18 -18 18 C-18 16.35 -18 14.7 -18 13 C-16.35 13 -14.7 13 -13 13 C-13 11.68 -13 10.36 -13 9 C-11.68 9 -10.36 9 -9 9 C-9 7.68 -9 6.36 -9 5 C-6.03 5 -3.06 5 0 5 C0 3.35 0 1.7 0 0 Z " fill="#CE7529" transform="translate(50,23)"/>
<path d="M0 0 C1.65 0 3.3 0 5 0 C5 2.97 5 5.94 5 9 C6.32 9 7.64 9 9 9 C9 12.3 9 15.6 9 19 C10.65 19 12.3 19 14 19 C14 23.29 14 27.58 14 32 C12.35 32 10.7 32 9 32 C9 34.97 9 37.94 9 41 C7.68 41 6.36 41 5 41 C5 42.65 5 44.3 5 46 C3.68 46 2.36 46 1 46 C0.67 48.97 0.34 51.94 0 55 C-1.32 55 -2.64 55 -4 55 C-4 56.32 -4 57.64 -4 59 C-6.97 59 -9.94 59 -13 59 C-13 60.32 -13 61.64 -13 63 C-22.24 63 -31.48 63 -41 63 C-41 61.68 -41 60.36 -41 59 C-48.26 59 -55.52 59 -63 59 C-63 57.68 -63 56.36 -63 55 C-64.65 55 -66.3 55 -68 55 C-68 51.7 -68 48.4 -68 45 C-69.32 45 -70.64 45 -72 45 C-72 36.42 -72 27.84 -72 19 C-70.68 19 -69.36 19 -68 19 C-68 26.26 -68 33.52 -68 41 C-66.68 41 -65.36 41 -64 41 C-64 42.32 -64 43.64 -64 45 C-62.35 45 -60.7 45 -59 45 C-59 42.69 -59 40.38 -59 38 C-55.53785351 35.94835763 -54.40610765 36 -50 36 C-50 30.39 -50 24.78 -50 19 C-47.03 19 -44.06 19 -41 19 C-41 24.61 -41 30.22 -41 36 C-42.98 36.495 -42.98 36.495 -45 37 C-45.33 42.94 -45.66 48.88 -46 55 C-44.35 55 -42.7 55 -41 55 C-41 53.35 -41 51.7 -41 50 C-39.35 50 -37.7 50 -36 50 C-36 51.32 -36 52.64 -36 54 C-33.36 54 -30.72 54 -28 54 C-28 51.36 -28 48.72 -28 46 C-29.32 46 -30.64 46 -32 46 C-32 44.35 -32 42.7 -32 41 C-33.32 41 -34.64 41 -36 41 C-36 38.03 -36 35.06 -36 32 C-30.06 32 -24.12 32 -18 32 C-18 30.35 -18 28.7 -18 27 C-16.68 27 -15.36 27 -14 27 C-14.020625 25.700625 -14.04125 24.40125 -14.0625 23.0625 C-14.08399454 21.70834367 -14.07148199 20.35243917 -14 19 C-13 18 -13 18 -10.93359375 17.90234375 C-9.69802734 17.91974609 -9.69802734 17.91974609 -8.4375 17.9375 C-7.61121094 17.94652344 -6.78492187 17.95554687 -5.93359375 17.96484375 C-4.97646484 17.98224609 -4.97646484 17.98224609 -4 18 C-4 15.36 -4 12.72 -4 10 C0.625 7.875 0.625 7.875 4 9 C3.505 7.515 3.505 7.515 3 6 C2.01 5.67 1.02 5.34 0 5 C0 3.33333333 0 1.66666667 0 0 Z " fill="#C97328" transform="translate(91,36)"/>
<path d="M0 0 C6.27 0 12.54 0 19 0 C19 1.65 19 3.3 19 5 C20.65 5 22.3 5 24 5 C24 6.32 24 7.64 24 9 C27.465 8.505 27.465 8.505 31 8 C31.33 6.68 31.66 5.36 32 4 C35.70831663 3.97081126 39.41660342 3.95313782 43.125 3.9375 C44.17171875 3.92912109 45.2184375 3.92074219 46.296875 3.91210938 C51.3090905 3.89624793 56.07665912 3.91822787 61 5 C61 6.32 61 7.64 61 9 C63.31 9 65.62 9 68 9 C67.505 7.515 67.505 7.515 67 6 C68 5 68 5 70.5625 4.9375 C71.7690625 4.9684375 71.7690625 4.9684375 73 5 C73 6.65 73 8.3 73 10 C71.68 10 70.36 10 69 10 C69 11.32 69 12.64 69 14 C66.03 14 63.06 14 60 14 C60 12.68 60 11.36 60 10 C50.76 10 41.52 10 32 10 C32 11.65 32 13.3 32 15 C29.03 15 26.06 15 23 15 C23 16.32 23 17.64 23 19 C21.68 19 20.36 19 19 19 C19 20.32 19 21.64 19 23 C17.35 23 15.7 23 14 23 C14 24.65 14 26.3 14 28 C12.68 28 11.36 28 10 28 C10 31.3 10 34.6 10 38 C8.68 37.67 7.36 37.34 6 37 C6 38.65 6 40.3 6 42 C4.35 42 2.7 42 1 42 C1 50.58 1 59.16 1 68 C2.32 68 3.64 68 5 68 C5 71.3 5 74.6 5 78 C6.65 78 8.3 78 10 78 C10 79.32 10 80.64 10 82 C12.64 82 15.28 82 18 82 C18 83.65 18 85.3 18 87 C15.36 87 12.72 87 10 87 C10 88.32 10 89.64 10 91 C8.35 91 6.7 91 5 91 C5 92.65 5 94.3 5 96 C3.68 96 2.36 96 1 96 C1 97.65 1 99.3 1 101 C-0.65 101 -2.3 101 -4 101 C-4 102.32 -4 103.64 -4 105 C-5.65 105 -7.3 105 -9 105 C-9 103.35 -9 101.7 -9 100 C-7.68 100 -6.36 100 -5 100 C-4.67 98.35 -4.34 96.7 -4 95 C-2.515 94.505 -2.515 94.505 -1 94 C-0.26676204 91.98491642 -0.26676204 91.98491642 0 90 C1.32 90 2.64 90 4 90 C4 88.68 4 87.36 4 86 C5.32 86 6.64 86 8 86 C8 85.01 8 84.02 8 83 C6.68 83 5.36 83 4 83 C4 81.68 4 80.36 4 79 C2.68 79 1.36 79 0 79 C0 76.03 0 73.06 0 70 C-1.65 70 -3.3 70 -5 70 C-5.19747891 66.10460543 -5.38123029 62.20867984 -5.5625 58.3125 C-5.61857422 57.20970703 -5.67464844 56.10691406 -5.73242188 54.97070312 C-5.78076172 53.90400391 -5.82910156 52.83730469 -5.87890625 51.73828125 C-5.9260376 50.75899658 -5.97316895 49.77971191 -6.02172852 48.77075195 C-6.00032994 46.04207295 -5.62794508 43.64920937 -5 41 C-3.68 41 -2.36 41 -1 41 C-1 38.36 -1 35.72 -1 33 C-2.98 33.495 -2.98 33.495 -5 34 C-5 32.35 -5 30.7 -5 29 C-6.32 29.33 -7.64 29.66 -9 30 C-10.20217503 27.59564994 -10.03897118 26.31618631 -9.87890625 23.6484375 C-9.83056641 22.79765625 -9.78222656 21.946875 -9.73242188 21.0703125 C-9.67634766 20.18085937 -9.62027344 19.29140625 -9.5625 18.375 C-9.51029297 17.4778125 -9.45808594 16.580625 -9.40429688 15.65625 C-9.2744565 13.43715988 -9.13948661 11.21850129 -9 9 C-7.68 8.67 -6.36 8.34 -5 8 C-5 7.01 -5 6.02 -5 5 C-3.35 5 -1.7 5 0 5 C0 3.35 0 1.7 0 0 Z " fill="#A25D26" transform="translate(18,13)"/>
<path d="M0 0 C2.64 0 5.28 0 8 0 C8 1.65 8 3.3 8 5 C10.97 5 13.94 5 17 5 C17 6.32 17 7.64 17 9 C39.77 8.505 39.77 8.505 63 8 C63.33 5.36 63.66 2.72 64 0 C66.64 0 69.28 0 72 0 C72 1.32 72 2.64 72 4 C73.65 4 75.3 4 77 4 C77 5.65 77 7.3 77 9 C78.32 9 79.64 9 81 9 C81 10.65 81 12.3 81 14 C82.32 14 83.64 14 85 14 C85 15.32 85 16.64 85 18 C52.33 18 19.66 18 -14 18 C-14 16.68 -14 15.36 -14 14 C-12.35 14 -10.7 14 -9 14 C-9 12.35 -9 10.7 -9 9 C-7.68 9 -6.36 9 -5 9 C-5 7.35 -5 5.7 -5 4 C-3.35 4 -1.7 4 0 4 C0 2.68 0 1.36 0 0 Z " fill="#B86520" transform="translate(28,100)"/>
<path d="M0 0 C1.32 0 2.64 0 4 0 C4 7.26 4 14.52 4 22 C5.32 22 6.64 22 8 22 C8 23.32 8 24.64 8 26 C9.65 26 11.3 26 13 26 C13 23.69 13 21.38 13 19 C16.46214649 16.94835763 17.59389235 17 22 17 C22 11.39 22 5.78 22 0 C24.97 0 27.94 0 31 0 C31 5.61 31 11.22 31 17 C29.68 17.33 28.36 17.66 27 18 C26.67 23.94 26.34 29.88 26 36 C27.65 36 29.3 36 31 36 C31 37.32 31 38.64 31 40 C23.74 40 16.48 40 9 40 C9 38.68 9 37.36 9 36 C7.35 36 5.7 36 4 36 C4 32.7 4 29.4 4 26 C2.68 26 1.36 26 0 26 C0 17.42 0 8.84 0 0 Z " fill="#C87026" transform="translate(19,55)"/>
<path d="M0 0 C1.32 0 2.64 0 4 0 C4.99170242 6.28812795 4.96350147 12.15772381 4.5625 18.5 C4.51029297 19.4178125 4.45808594 20.335625 4.40429688 21.28125 C4.2759611 23.52129261 4.14107403 25.76072975 4 28 C2.68 28 1.36 28 0 28 C0 30.97 0 33.94 0 37 C-1.32 37 -2.64 37 -4 37 C-4 38.32 -4 39.64 -4 41 C-5.65 41 -7.3 41 -9 41 C-9 41.99 -9 42.98 -9 44 C-7.35 44.33 -5.7 44.66 -4 45 C-4 46.32 -4 47.64 -4 49 C-2.68 49 -1.36 49 0 49 C0 50.32 0 51.64 0 53 C1.32 53 2.64 53 4 53 C4 54.65 4 56.3 4 58 C5.65 58 7.3 58 9 58 C9 59.65 9 61.3 9 63 C7.02 63 5.04 63 3 63 C3 61.68 3 60.36 3 59 C1.68 59 0.36 59 -1 59 C-1 57.35 -1 55.7 -1 54 C-2.32 54 -3.64 54 -5 54 C-5 52.35 -5 50.7 -5 49 C-6.65 49 -8.3 49 -10 49 C-10 47.68 -10 46.36 -10 45 C-12.64 45 -15.28 45 -18 45 C-18.33 47.64 -18.66 50.28 -19 53 C-24.74746028 53.82719921 -30.29199417 54.13556486 -36.09375 54.09765625 C-36.92588013 54.0962413 -37.75801025 54.09482635 -38.61535645 54.09336853 C-41.2436093 54.08782167 -43.87177338 54.07527945 -46.5 54.0625 C-48.29426959 54.05747812 -50.08854054 54.05291642 -51.8828125 54.04882812 C-56.25524195 54.03786972 -60.62760598 54.02064248 -65 54 C-65 52.68 -65 51.36 -65 50 C-67.97 50 -70.94 50 -74 50 C-74 48.35 -74 46.7 -74 45 C-70.7 45 -67.4 45 -64 45 C-64 46.32 -64 47.64 -64 49 C-52.12 49 -40.24 49 -28 49 C-28 47.35 -28 45.7 -28 44 C-25.03 44 -22.06 44 -19 44 C-19 42.68 -19 41.36 -19 40 C-16.03 40 -13.06 40 -10 40 C-10 38.68 -10 37.36 -10 36 C-8.35 36 -6.7 36 -5 36 C-5 33.03 -5 30.06 -5 27 C-3.68 27 -2.36 27 -1 27 C-1.01160156 25.88882813 -1.02320312 24.77765625 -1.03515625 23.6328125 C-1.09238598 15.67698604 -1.00419086 7.90800301 0 0 Z " fill="#45301D" transform="translate(110,55)"/>
<path d="M0 0 C3.96 0 7.92 0 12 0 C11.67 0.66 11.34 1.32 11 2 C7.7 2 4.4 2 1 2 C1 2.99 1 3.98 1 5 C6.61 5 12.22 5 18 5 C18 6.65 18 8.3 18 10 C19.65 10 21.3 10 23 10 C23 15.94 23 21.88 23 28 C21.68 28 20.36 28 19 28 C19 29.65 19 31.3 19 33 C17.35 33 15.7 33 14 33 C14 35.97 14 38.94 14 42 C12.35 42 10.7 42 9 42 C9 38.7 9 35.4 9 32 C7.68 32 6.36 32 5 32 C5 29.03 5 26.06 5 23 C3.35 23 1.7 23 0 23 C0 22.01 0 21.02 0 20 C-1.32 20 -2.64 20 -4 20 C-4 18.35 -4 16.7 -4 15 C-6.97 15 -9.94 15 -13 15 C-13 14.67 -13 14.34 -13 14 C-10.03 14 -7.06 14 -4 14 C-4 12.68 -4 11.36 -4 10 C-2.68 10 -1.36 10 0 10 C0 8.35 0 6.7 0 5 C-0.66 4.67 -1.32 4.34 -2 4 C-1.34 2.68 -0.68 1.36 0 0 Z " fill="#A05318" transform="translate(91,13)"/>
<path d="M0 0 C1.32 0 2.64 0 4 0 C4 2.97 4 5.94 4 9 C2.68 9 1.36 9 0 9 C0 17.58 0 26.16 0 35 C1.32 35 2.64 35 4 35 C4 38.3 4 41.6 4 45 C5.65 45 7.3 45 9 45 C9 46.32 9 47.64 9 49 C11.64 49 14.28 49 17 49 C17 50.65 17 52.3 17 54 C14.36 54 11.72 54 9 54 C9 55.32 9 56.64 9 58 C7.35 58 5.7 58 4 58 C4 59.65 4 61.3 4 63 C2.68 63 1.36 63 0 63 C0 64.65 0 66.3 0 68 C-1.65 68 -3.3 68 -5 68 C-5 69.32 -5 70.64 -5 72 C-6.65 72 -8.3 72 -10 72 C-10 70.35 -10 68.7 -10 67 C-8.68 67 -7.36 67 -6 67 C-5.67 65.35 -5.34 63.7 -5 62 C-3.515 61.505 -3.515 61.505 -2 61 C-1.26676204 58.98491642 -1.26676204 58.98491642 -1 57 C0.32 57 1.64 57 3 57 C3 55.68 3 54.36 3 53 C4.32 53 5.64 53 7 53 C7 52.01 7 51.02 7 50 C5.68 50 4.36 50 3 50 C3 48.68 3 47.36 3 46 C1.68 46 0.36 46 -1 46 C-1 43.03 -1 40.06 -1 37 C-2.65 37 -4.3 37 -6 37 C-6.19747891 33.10460543 -6.38123029 29.20867984 -6.5625 25.3125 C-6.61857422 24.20970703 -6.67464844 23.10691406 -6.73242188 21.97070312 C-6.78076172 20.90400391 -6.82910156 19.83730469 -6.87890625 18.73828125 C-6.9260376 17.75899658 -6.97316895 16.77971191 -7.02172852 15.77075195 C-7.00032994 13.04207295 -6.62794508 10.64920937 -6 8 C-4.35 8 -2.7 8 -1 8 C-1.020625 6.865625 -1.04125 5.73125 -1.0625 4.5625 C-1 1 -1 1 0 0 Z " fill="#3E2D1C" transform="translate(19,46)"/>
<path d="M0 0 C2.64 0 5.28 0 8 0 C8 1.65 8 3.3 8 5 C10.97 5 13.94 5 17 5 C17 6.32 17 7.64 17 9 C29.21 9 41.42 9 54 9 C54 10.32 54 11.64 54 13 C40.47 13 26.94 13 13 13 C13 11.68 13 10.36 13 9 C10.36 9.33 7.72 9.66 5 10 C4.67 10.99 4.34 11.98 4 13 C5.65 13 7.3 13 9 13 C9 14.65 9 16.3 9 18 C1.41 18 -6.18 18 -14 18 C-14 16.68 -14 15.36 -14 14 C-12.35 14 -10.7 14 -9 14 C-9 12.35 -9 10.7 -9 9 C-7.68 9 -6.36 9 -5 9 C-5 7.35 -5 5.7 -5 4 C-3.35 4 -1.7 4 0 4 C0 2.68 0 1.36 0 0 Z " fill="#BA6620" transform="translate(28,100)"/>
<path d="M0 0 C6.27 0 12.54 0 19 0 C19 1.65 19 3.3 19 5 C20.65 5 22.3 5 24 5 C24 6.32 24 7.64 24 9 C27.465 8.505 27.465 8.505 31 8 C31.33 6.68 31.66 5.36 32 4 C35.70831663 3.97081126 39.41660342 3.95313782 43.125 3.9375 C44.17171875 3.92912109 45.2184375 3.92074219 46.296875 3.91210938 C51.3090905 3.89624793 56.07665912 3.91822787 61 5 C61 6.32 61 7.64 61 9 C63.31 9 65.62 9 68 9 C67.505 7.515 67.505 7.515 67 6 C68 5 68 5 70.5625 4.9375 C71.7690625 4.9684375 71.7690625 4.9684375 73 5 C73 6.65 73 8.3 73 10 C71.68 10 70.36 10 69 10 C69 11.32 69 12.64 69 14 C66.03 14 63.06 14 60 14 C60 12.68 60 11.36 60 10 C50.76 10 41.52 10 32 10 C32 11.32 32 12.64 32 14 C28.7 14 25.4 14 22 14 C22 12.68 22 11.36 22 10 C20.68 10 19.36 10 18 10 C18 8.68 18 7.36 18 6 C12.39 6 6.78 6 1 6 C1 7.32 1 8.64 1 10 C-0.32 10 -1.64 10 -3 10 C-3.66 8.35 -4.32 6.7 -5 5 C-3.35 5 -1.7 5 0 5 C0 3.35 0 1.7 0 0 Z " fill="#60462B" transform="translate(18,13)"/>
<path d="M0 0 C5.94 0 11.88 0 18 0 C18 2.97 18 5.94 18 9 C16.68 9 15.36 9 14 9 C14 10.65 14 12.3 14 14 C13.34 14 12.68 14 12 14 C12 16.64 12 19.28 12 22 C13.98 22 15.96 22 18 22 C18 20.68 18 19.36 18 18 C19.65 18 21.3 18 23 18 C23 19.32 23 20.64 23 22 C24.65 22 26.3 22 28 22 C28 22.33 28 22.66 28 23 C24.7 23 21.4 23 18 23 C18 24.32 18 25.64 18 27 C12.06 27 6.12 27 0 27 C0 25.68 0 24.36 0 23 C-1.65 23 -3.3 23 -5 23 C-5 21.35 -5 19.7 -5 18 C-3.35 18 -1.7 18 0 18 C0 19.32 0 20.64 0 22 C2.64 22 5.28 22 8 22 C8 19.36 8 16.72 8 14 C6.68 14 5.36 14 4 14 C4 12.35 4 10.7 4 9 C2.68 9 1.36 9 0 9 C0 6.03 0 3.06 0 0 Z " fill="#332111" transform="translate(55,68)"/>
<path d="M0 0 C1.134375 0.020625 2.26875 0.04125 3.4375 0.0625 C3.4375 1.7125 3.4375 3.3625 3.4375 5.0625 C4.7575 5.0625 6.0775 5.0625 7.4375 5.0625 C7.4375 6.3825 7.4375 7.7025 7.4375 9.0625 C9.9125 9.5575 9.9125 9.5575 12.4375 10.0625 C12.4375 16.6625 12.4375 23.2625 12.4375 30.0625 C10.7875 29.7325 9.1375 29.4025 7.4375 29.0625 C7.4375 30.7125 7.4375 32.3625 7.4375 34.0625 C6.1175 34.0625 4.7975 34.0625 3.4375 34.0625 C3.458125 35.01125 3.47875 35.96 3.5 36.9375 C3.4375 40.0625 3.4375 40.0625 2.4375 42.0625 C1.1175 42.0625 -0.2025 42.0625 -1.5625 42.0625 C-1.5625 39.0925 -1.5625 36.1225 -1.5625 33.0625 C0.0875 33.0625 1.7375 33.0625 3.4375 33.0625 C3.4375 31.4125 3.4375 29.7625 3.4375 28.0625 C4.7575 28.0625 6.0775 28.0625 7.4375 28.0625 C7.4375 22.1225 7.4375 16.1825 7.4375 10.0625 C5.7875 10.0625 4.1375 10.0625 2.4375 10.0625 C2.4375 8.4125 2.4375 6.7625 2.4375 5.0625 C-3.1725 5.0625 -8.7825 5.0625 -14.5625 5.0625 C-14.5625 4.0725 -14.5625 3.0825 -14.5625 2.0625 C-13.85222656 2.00191406 -13.14195313 1.94132813 -12.41015625 1.87890625 C-11.03150391 1.75322266 -11.03150391 1.75322266 -9.625 1.625 C-8.70847656 1.54378906 -7.79195313 1.46257813 -6.84765625 1.37890625 C-3.46322053 0.91029207 -3.92605044 0.06887808 0 0 Z " fill="#331E0E" transform="translate(106.5625,12.9375)"/>
<path d="M0 0 C1.32 0 2.64 0 4 0 C4 3.3 4 6.6 4 10 C5.65 10 7.3 10 9 10 C9 11.32 9 12.64 9 14 C10.32 14 11.64 14 13 14 C13 16.64 13 19.28 13 22 C10.36 22 7.72 22 5 22 C5 20.68 5 19.36 5 18 C3.35 18 1.7 18 0 18 C0 19.65 0 21.3 0 23 C-1.65 23 -3.3 23 -5 23 C-5 17.06 -5 11.12 -5 5 C-3.35 4.67 -1.7 4.34 0 4 C0 2.68 0 1.36 0 0 Z " fill="#ECAB62" transform="translate(50,68)"/>
<path d="M0 0 C1.32 0 2.64 0 4 0 C4 7.26 4 14.52 4 22 C5.32 22 6.64 22 8 22 C8.33 23.32 8.66 24.64 9 26 C10.32 26.33 11.64 26.66 13 27 C13 29.97 13 32.94 13 36 C14.32 36 15.64 36 17 36 C17 37.32 17 38.64 17 40 C14.36 40 11.72 40 9 40 C9 38.68 9 37.36 9 36 C7.35 36 5.7 36 4 36 C4 32.7 4 29.4 4 26 C2.68 26 1.36 26 0 26 C0 17.42 0 8.84 0 0 Z " fill="#A55417" transform="translate(19,55)"/>
<path d="M0 0 C3.3 0 6.6 0 10 0 C10 1.32 10 2.64 10 4 C21.88 4 33.76 4 46 4 C46 5.65 46 7.3 46 9 C33.79 9 21.58 9 9 9 C9 7.68 9 6.36 9 5 C6.03 5 3.06 5 0 5 C0 3.35 0 1.7 0 0 Z " fill="#44250E" transform="translate(36,100)"/>
<path d="M0 0 C0.99 0 1.98 0 3 0 C3 1.32 3 2.64 3 4 C4.98 4 6.96 4 9 4 C9 9.61 9 15.22 9 21 C7.35 21 5.7 21 4 21 C4 19.68 4 18.36 4 17 C2.35 17 0.7 17 -1 17 C-1 18.32 -1 19.64 -1 21 C-2.98 21 -4.96 21 -7 21 C-7 18.36 -7 15.72 -7 13 C-6.34 13 -5.68 13 -5 13 C-5 11.68 -5 10.36 -5 9 C-3.35 9 -1.7 9 0 9 C0 6.03 0 3.06 0 0 Z " fill="#ECAB61" transform="translate(74,69)"/>
<path d="M0 0 C3.96 0 7.92 0 12 0 C11.67 0.66 11.34 1.32 11 2 C7.7 2 4.4 2 1 2 C1 2.99 1 3.98 1 5 C6.61 5 12.22 5 18 5 C18 6.65 18 8.3 18 10 C19.32 10 20.64 10 22 10 C22 14.29 22 18.58 22 23 C20.68 23 19.36 23 18 23 C18 20.03 18 17.06 18 14 C16.68 14 15.36 14 14 14 C14 12.68 14 11.36 14 10 C11.03 10 8.06 10 5 10 C5 11.32 5 12.64 5 14 C2.36 14 -0.28 14 -3 14 C-3 12.68 -3 11.36 -3 10 C-2.01 10 -1.02 10 0 10 C0 8.35 0 6.7 0 5 C-0.66 4.67 -1.32 4.34 -2 4 C-1.34 2.68 -0.68 1.36 0 0 Z " fill="#B17033" transform="translate(91,13)"/>
<path d="M0 0 C2.31 0 4.62 0 7 0 C7 1.65 7 3.3 7 5 C20.86 5 34.72 5 49 5 C49 6.32 49 7.64 49 9 C34.15 9 19.3 9 4 9 C4 7.35 4 5.7 4 4 C2.35 4 0.7 4 -1 4 C-0.67 2.68 -0.34 1.36 0 0 Z " fill="#C87126" transform="translate(33,109)"/>
<path d="M0 0 C0.33 1.32 0.66 2.64 1 4 C5.29 4 9.58 4 14 4 C14.33 5.65 14.66 7.3 15 9 C16.32 9 17.64 9 19 9 C19 10.32 19 11.64 19 13 C20.32 13 21.64 13 23 13 C23 14.65 23 16.3 23 18 C24.65 18 26.3 18 28 18 C28 19.65 28 21.3 28 23 C26.02 23 24.04 23 22 23 C22 21.68 22 20.36 22 19 C20.68 19 19.36 19 18 19 C18 17.35 18 15.7 18 14 C16.68 14 15.36 14 14 14 C14 12.35 14 10.7 14 9 C12.35 9 10.7 9 9 9 C9 7.68 9 6.36 9 5 C6.36 5 3.72 5 1 5 C0.67 7.64 0.34 10.28 0 13 C-4.455 13.495 -4.455 13.495 -9 14 C-9 10.7 -9 7.4 -9 4 C-6.03 4 -3.06 4 0 4 C0 2.68 0 1.36 0 0 Z " fill="#442C17" transform="translate(91,95)"/>
<path d="M0 0 C2.97 0 5.94 0 9 0 C9 1.32 9 2.64 9 4 C21.21 4 33.42 4 46 4 C46 5.32 46 6.64 46 8 C32.47 8 18.94 8 5 8 C5 6.68 5 5.36 5 4 C3.35 3.67 1.7 3.34 0 3 C0 2.01 0 1.02 0 0 Z " fill="#9F5015" transform="translate(36,105)"/>
<path d="M0 0 C3.96 0 7.92 0 12 0 C12 1.32 12 2.64 12 4 C13.65 4 15.3 4 17 4 C17 5.65 17 7.3 17 9 C18.32 9 19.64 9 21 9 C21 10.32 21 11.64 21 13 C15.39 13 9.78 13 4 13 C4 11.35 4 9.7 4 8 C2.68 8 1.36 8 0 8 C0 5.36 0 2.72 0 0 Z " fill="#CA7328" transform="translate(92,105)"/>
<path d="M0 0 C1.98 0 3.96 0 6 0 C6 1.32 6 2.64 6 4 C8.64 4 11.28 4 14 4 C14 5.65 14 7.3 14 9 C11.36 9 8.72 9 6 9 C6 10.32 6 11.64 6 13 C4.35 13 2.7 13 1 13 C1 14.65 1 16.3 1 18 C-0.32 18 -1.64 18 -3 18 C-3 19.65 -3 21.3 -3 23 C-4.65 23 -6.3 23 -8 23 C-8 24.32 -8 25.64 -8 27 C-9.65 27 -11.3 27 -13 27 C-13 25.35 -13 23.7 -13 22 C-11.68 22 -10.36 22 -9 22 C-8.67 20.35 -8.34 18.7 -8 17 C-7.01 16.67 -6.02 16.34 -5 16 C-4.26676204 13.98491642 -4.26676204 13.98491642 -4 12 C-2.68 12 -1.36 12 0 12 C0 10.68 0 9.36 0 8 C1.32 8 2.64 8 4 8 C4 7.01 4 6.02 4 5 C2.68 5 1.36 5 0 5 C0 3.35 0 1.7 0 0 Z " fill="#624629" transform="translate(22,91)"/>
<path d="M0 0 C1.65 0 3.3 0 5 0 C5 1.32 5 2.64 5 4 C10.94 4 16.88 4 23 4 C23 2.68 23 1.36 23 0 C24.65 0 26.3 0 28 0 C28 2.64 28 5.28 28 8 C18.76 8 9.52 8 0 8 C0 5.36 0 2.72 0 0 Z " fill="#B97737" transform="translate(50,91)"/>
<path d="M0 0 C1.65 0 3.3 0 5 0 C5 1.32 5 2.64 5 4 C10.94 4 16.88 4 23 4 C23 2.68 23 1.36 23 0 C24.65 0 26.3 0 28 0 C28 1.32 28 2.64 28 4 C29.65 4 31.3 4 33 4 C33 4.33 33 4.66 33 5 C29.7 5 26.4 5 23 5 C23 6.32 23 7.64 23 9 C17.06 9 11.12 9 5 9 C5 7.68 5 6.36 5 5 C3.35 5 1.7 5 0 5 C0 3.35 0 1.7 0 0 Z " fill="#2D1B0D" transform="translate(50,86)"/>
<path d="M0 0 C3.3 0 6.6 0 10 0 C10 1.32 10 2.64 10 4 C11.32 4 12.64 4 14 4 C14 6.97 14 9.94 14 13 C11.03 13 8.06 13 5 13 C5 11.35 5 9.7 5 8 C3.35 8 1.7 8 0 8 C0 5.36 0 2.72 0 0 Z " fill="#351F0E" transform="translate(91,28)"/>
<path d="M0 0 C1.32 0 2.64 0 4 0 C4 7.26 4 14.52 4 22 C2.35 22 0.7 22 -1 22 C-1 23.32 -1 24.64 -1 26 C-3.97 26 -6.94 26 -10 26 C-10 24.68 -10 23.36 -10 22 C-7.04335481 20.5216774 -4.25770263 20.93967217 -1 21 C-1 17.37 -1 13.74 -1 10 C0.32 9.34 1.64 8.68 3 8 C3 6.68 3 5.36 3 4 C2.01 4 1.02 4 0 4 C0 2.68 0 1.36 0 0 Z " fill="#9A4D14" transform="translate(101,69)"/>
<path d="M0 0 C2.64 0 5.28 0 8 0 C8 2.64 8 5.28 8 8 C6.68 8 5.36 8 4 8 C4 9.65 4 11.3 4 13 C1.03 13 -1.94 13 -5 13 C-5 10.03 -5 7.06 -5 4 C-3.35 4 -1.7 4 0 4 C0 2.68 0 1.36 0 0 Z " fill="#311D0D" transform="translate(28,28)"/>
<path d="M0 0 C1.134375 0.020625 2.26875 0.04125 3.4375 0.0625 C3.4375 1.7125 3.4375 3.3625 3.4375 5.0625 C4.7575 5.0625 6.0775 5.0625 7.4375 5.0625 C7.4375 6.3825 7.4375 7.7025 7.4375 9.0625 C9.9125 9.5575 9.9125 9.5575 12.4375 10.0625 C12.4375 16.6625 12.4375 23.2625 12.4375 30.0625 C12.1075 30.0625 11.7775 30.0625 11.4375 30.0625 C10.73617087 23.36230211 10.32705039 16.79992646 10.4375 10.0625 C7.7975 10.0625 5.1575 10.0625 2.4375 10.0625 C2.4375 8.4125 2.4375 6.7625 2.4375 5.0625 C-3.1725 5.0625 -8.7825 5.0625 -14.5625 5.0625 C-14.5625 4.0725 -14.5625 3.0825 -14.5625 2.0625 C-13.85222656 2.00191406 -13.14195313 1.94132813 -12.41015625 1.87890625 C-11.03150391 1.75322266 -11.03150391 1.75322266 -9.625 1.625 C-8.70847656 1.54378906 -7.79195313 1.46257813 -6.84765625 1.37890625 C-3.46322053 0.91029207 -3.92605044 0.06887808 0 0 Z " fill="#322112" transform="translate(106.5625,12.9375)"/>
<path d="M0 0 C1.32 0 2.64 0 4 0 C4 2.97 4 5.94 4 9 C2.68 9 1.36 9 0 9 C0 17.58 0 26.16 0 35 C1.32 35 2.64 35 4 35 C4 38.3 4 41.6 4 45 C1.525 45.495 1.525 45.495 -1 46 C-1.02527062 39.60962769 -1.04283317 33.21926817 -1.05493164 26.82885742 C-1.05997308 24.65307127 -1.06680607 22.47728853 -1.07543945 20.30151367 C-1.08751338 17.18146933 -1.09323005 14.06146962 -1.09765625 10.94140625 C-1.10281754 9.96224747 -1.10797882 8.98308868 -1.11329651 7.97425842 C-1.11337204 7.07340012 -1.11344757 6.17254181 -1.11352539 5.24438477 C-1.115746 4.44718521 -1.11796661 3.64998566 -1.12025452 2.82862854 C-1 1 -1 1 0 0 Z " fill="#562F11" transform="translate(19,46)"/>
<path d="M0 0 C1.65 0 3.3 0 5 0 C3.68 0.33 2.36 0.66 1 1 C1 2.32 1 3.64 1 5 C1.99 5 2.98 5 4 5 C4 6.32 4 7.64 4 9 C3.01 9.66 2.02 10.32 1 11 C0.41651248 13.6556728 0.41651248 13.6556728 0.3125 16.625 C0.24675781 17.62789062 0.18101563 18.63078125 0.11328125 19.6640625 C0.07589844 20.43492188 0.03851563 21.20578125 0 22 C-2.97 22.33 -5.94 22.66 -9 23 C-8.505 18.545 -8.505 18.545 -8 14 C-6.68 14 -5.36 14 -4 14 C-4 12.35 -4 10.7 -4 9 C-2.68 9 -1.36 9 0 9 C0 6.03 0 3.06 0 0 Z " fill="#A25216" transform="translate(100,68)"/>
<path d="M0 0 C2.97 0 5.94 0 9 0 C9 4.29 9 8.58 9 13 C6.03 13 3.06 13 0 13 C0 8.71 0 4.42 0 0 Z " fill="#301D0D" transform="translate(78,55)"/>
<path d="M0 0 C2.97 0 5.94 0 9 0 C9 4.29 9 8.58 9 13 C6.03 13 3.06 13 0 13 C0 8.71 0 4.42 0 0 Z " fill="#2C1B0D" transform="translate(41,55)"/>
<path d="M0 0 C5.61 0 11.22 0 17 0 C17 1.32 17 2.64 17 4 C18.32 4 19.64 4 21 4 C21 5.32 21 6.64 21 8 C18.36 8 15.72 8 13 8 C13 6.68 13 5.36 13 4 C10.03 4 7.06 4 4 4 C4 4.99 4 5.98 4 7 C2.68 7 1.36 7 0 7 C0 4.69 0 2.38 0 0 Z " fill="#D58236" transform="translate(19,19)"/>
<path d="M0 0 C4.62 0 9.24 0 14 0 C14 1.32 14 2.64 14 4 C15.65 4 17.3 4 19 4 C19 5.65 19 7.3 19 9 C16.03 9 13.06 9 10 9 C10 7.68 10 6.36 10 5 C6.7 5 3.4 5 0 5 C0 3.35 0 1.7 0 0 Z " fill="#89430F" transform="translate(36,95)"/>
<path d="M0 0 C11.88 0 23.76 0 36 0 C36 0.99 36 1.98 36 3 C24.12 3 12.24 3 0 3 C0 2.01 0 1.02 0 0 Z " fill="#27180B" transform="translate(46,105)"/>
<path d="M0 0 C5.94 0 11.88 0 18 0 C18.33 1.32 18.66 2.64 19 4 C18 5 18 5 16.23413086 5.11352539 C15.48526611 5.10828857 14.73640137 5.10305176 13.96484375 5.09765625 C13.15595703 5.09443359 12.34707031 5.09121094 11.51367188 5.08789062 C10.66353516 5.07951172 9.81339844 5.07113281 8.9375 5.0625 C8.08349609 5.05798828 7.22949219 5.05347656 6.34960938 5.04882812 C4.23304337 5.03700373 2.11651315 5.01906769 0 5 C0 3.35 0 1.7 0 0 Z " fill="#A4561B" transform="translate(55,99)"/>
<path d="M0 0 C0.33 0 0.66 0 1 0 C1.0272415 1.41655793 1.04650467 2.83327045 1.0625 4.25 C1.07410156 5.03890625 1.08570312 5.8278125 1.09765625 6.640625 C1 9 1 9 0 13 C-4.455 13.495 -4.455 13.495 -9 14 C-9 10.7 -9 7.4 -9 4 C-6.03 4 -3.06 4 0 4 C0 2.68 0 1.36 0 0 Z " fill="#5C300F" transform="translate(91,95)"/>
<path d="M0 0 C10.23 0 20.46 0 31 0 C31 0.33 31 0.66 31 1 C28.03 1 25.06 1 22 1 C22 2.32 22 3.64 22 5 C20.68 5 19.36 5 18 5 C17.67 6.32 17.34 7.64 17 9 C17 6.36 17 3.72 17 1 C14.36 1 11.72 1 9 1 C9 2.32 9 3.64 9 5 C6.03 5 3.06 5 0 5 C0 3.35 0 1.7 0 0 Z " fill="#884513" transform="translate(19,27)"/>
<path d="M0 0 C2.475 0.495 2.475 0.495 5 1 C5 6.94 5 12.88 5 19 C3.68 19 2.36 19 1 19 C-0.00926479 14.84373632 -0.10239579 10.95634906 -0.0625 6.6875 C-0.05347656 5.43324219 -0.04445313 4.17898437 -0.03515625 2.88671875 C-0.01775391 1.45779297 -0.01775391 1.45779297 0 0 Z " fill="#2A1B0E" transform="translate(9,22)"/>
<path d="M0 0 C1.32 0 2.64 0 4 0 C3.67 8.58 3.34 17.16 3 26 C2.01 26.33 1.02 26.66 0 27 C0 18.09 0 9.18 0 0 Z " fill="#2B1B0E" transform="translate(110,55)"/>
<path d="M0 0 C1.32 0 2.64 0 4 0 C4 0.99 4 1.98 4 3 C5.32 3 6.64 3 8 3 C8 2.01 8 1.02 8 0 C10.97 0 13.94 0 17 0 C17 1.32 17 2.64 17 4 C12.38 4 7.76 4 3 4 C3 6.97 3 9.94 3 13 C2.01 13 1.02 13 0 13 C0 8.71 0 4.42 0 0 Z " fill="#CC7528" transform="translate(15,23)"/>
<path d="M0 0 C5.28 0 10.56 0 16 0 C15.01 0.33 14.02 0.66 13 1 C13 1.66 13 2.32 13 3 C9.7 3 6.4 3 3 3 C3.33 4.65 3.66 6.3 4 8 C1.36 8 -1.28 8 -4 8 C-4 6.68 -4 5.36 -4 4 C-2.68 4 -1.36 4 0 4 C0 2.68 0 1.36 0 0 Z " fill="#D27E31" transform="translate(92,19)"/>
<path d="M0 0 C11.52164009 -0.18451025 11.52164009 -0.18451025 17 1 C17 2.32 17 3.64 17 5 C12.05 5 7.1 5 2 5 C2 4.01 2 3.02 2 2 C1.34 2 0.68 2 0 2 C0 1.34 0 0.68 0 0 Z " fill="#5E4931" transform="translate(62,17)"/>
<path d="M0 0 C5.94 0 11.88 0 18 0 C18 1.32 18 2.64 18 4 C12.06 4 6.12 4 0 4 C0 2.68 0 1.36 0 0 Z " fill="#F0B570" transform="translate(55,64)"/>
<path d="M0 0 C5.94 0 11.88 0 18 0 C18 1.32 18 2.64 18 4 C12.06 4 6.12 4 0 4 C0 2.68 0 1.36 0 0 Z " fill="#2D1C0F" transform="translate(18,14)"/>
<path d="M0 0 C3.63 0 7.26 0 11 0 C11 2.97 11 5.94 11 9 C12.32 9 13.64 9 15 9 C15 13.62 15 18.24 15 23 C16.32 23.33 17.64 23.66 19 24 C17.35 24 15.7 24 14 24 C14 20.7 14 17.4 14 14 C12.68 14 11.36 14 10 14 C10 9.71 10 5.42 10 1 C7.03 1 4.06 1 1 1 C1 5.29 1 9.58 1 14 C0.67 14 0.34 14 0 14 C0 9.38 0 4.76 0 0 Z " fill="#995A24" transform="translate(40,54)"/>
<path d="M0 0 C2.97 0 5.94 0 9 0 C9 3.3 9 6.6 9 10 C7.68 9.67 6.36 9.34 5 9 C5 10.65 5 12.3 5 14 C4.67 14 4.34 14 4 14 C4 10.7 4 7.4 4 4 C2.68 4 1.36 4 0 4 C0 2.68 0 1.36 0 0 Z " fill="#A95819" transform="translate(19,41)"/>
<path d="M0 0 C0.99 0 1.98 0 3 0 C3.82351864 6.38226945 4.12086218 12.56744599 4 19 C2.68 18.67 1.36 18.34 0 18 C0 12.06 0 6.12 0 0 Z " fill="#2D1D0F" transform="translate(114,23)"/>
<path d="M0 0 C2.64 0 5.28 0 8 0 C8 1.32 8 2.64 8 4 C9.65 4 11.3 4 13 4 C13 5.65 13 7.3 13 9 C12.67 7.68 12.34 6.36 12 5 C8.04 5 4.08 5 0 5 C0 6.32 0 7.64 0 9 C-2.97 9 -5.94 9 -9 9 C-9 8.67 -9 8.34 -9 8 C-6.36 8 -3.72 8 -1 8 C-0.67 5.36 -0.34 2.72 0 0 Z " fill="#A55619" transform="translate(92,100)"/>
<path d="M0 0 C1.65 0 3.3 0 5 0 C5 1.32 5 2.64 5 4 C6.65 4.33 8.3 4.66 10 5 C10 11.6 10 18.2 10 25 C9.67 25 9.34 25 9 25 C8.29867087 18.29980211 7.88955039 11.73742646 8 5 C5.36 5 2.72 5 0 5 C0 3.35 0 1.7 0 0 Z " fill="#594831" transform="translate(109,18)"/>
<path d="M0 0 C2.97 0 5.94 0 9 0 C9 1.32 9 2.64 9 4 C6.36 4 3.72 4 1 4 C1 5.32 1 6.64 1 8 C-0.65 8 -2.3 8 -4 8 C-4 6.68 -4 5.36 -4 4 C-2.68 4 -1.36 4 0 4 C0 2.68 0 1.36 0 0 Z " fill="#2B1A0D" transform="translate(27,96)"/>
<path d="M0 0 C5.94 0 11.88 0 18 0 C18 0.99 18 1.98 18 3 C12.06 3 6.12 3 0 3 C0 2.01 0 1.02 0 0 Z " fill="#E9A65A" transform="translate(55,96)"/>
<path d="M0 0 C1.98 0 3.96 0 6 0 C6 1.32 6 2.64 6 4 C8.64 4 11.28 4 14 4 C14 4.33 14 4.66 14 5 C11.03 5 8.06 5 5 5 C5 6.32 5 7.64 5 9 C3.68 9 2.36 9 1 9 C1 10.32 1 11.64 1 13 C-0.65 13 -2.3 13 -4 13 C-2.68 12.67 -1.36 12.34 0 12 C0 10.68 0 9.36 0 8 C1.32 8 2.64 8 4 8 C4 7.01 4 6.02 4 5 C2.68 5 1.36 5 0 5 C0 3.35 0 1.7 0 0 Z " fill="#5C4932" transform="translate(22,91)"/>
<path d="M0 0 C4.29 0 8.58 0 13 0 C13 1.32 13 2.64 13 4 C8.71 4 4.42 4 0 4 C0 2.68 0 1.36 0 0 Z " fill="#A55417" transform="translate(37,95)"/>
<path d="M0 0 C1.65 0 3.3 0 5 0 C5 2.97 5 5.94 5 9 C3.35 9.33 1.7 9.66 0 10 C0 6.7 0 3.4 0 0 Z " fill="#2F1D0F" transform="translate(18,82)"/>
<path d="M0 0 C0.66 0.33 1.32 0.66 2 1 C2 1.99 2 2.98 2 4 C-2.29 4 -6.58 4 -11 4 C-11 3.01 -11 2.02 -11 1 C-7.10835652 -0.29721449 -4.10570774 -0.13033993 0 0 Z " fill="#2F1E10" transform="translate(62,18)"/>
<path d="M0 0 C2.97 0 5.94 0 9 0 C9 1.65 9 3.3 9 5 C6.03 5 3.06 5 0 5 C0 3.35 0 1.7 0 0 Z " fill="#8D440F" transform="translate(73,99)"/>
<path d="M0 0 C1.41655793 -0.0272415 2.83327045 -0.04650467 4.25 -0.0625 C5.43335938 -0.07990234 5.43335938 -0.07990234 6.640625 -0.09765625 C8.90691002 -0.00385306 10.8288895 0.36758937 13 1 C13 2.32 13 3.64 13 5 C10.36 5 7.72 5 5 5 C5 3.68 5 2.36 5 1 C3.35 1 1.7 1 0 1 C0 0.67 0 0.34 0 0 Z " fill="#843F0E" transform="translate(23,90)"/>
<path d="M0 0 C7.59 0 15.18 0 23 0 C23 0.33 23 0.66 23 1 C17.39 1 11.78 1 6 1 C6 2.32 6 3.64 6 5 C4.68 5 3.36 5 2 5 C1.34 3.35 0.68 1.7 0 0 Z " fill="#6D4521" transform="translate(13,18)"/>
<path d="M0 0 C1.65 0 3.3 0 5 0 C5 2.64 5 5.28 5 8 C3.35 8 1.7 8 0 8 C0 5.36 0 2.72 0 0 Z " fill="#D98F46" transform="translate(50,91)"/>
<path d="M0 0 C0.33 0 0.66 0 1 0 C1 1.65 1 3.3 1 5 C3.64 5 6.28 5 9 5 C9 6.65 9 8.3 9 10 C7.35 10.33 5.7 10.66 4 11 C4 9.35 4 7.7 4 6 C2.68 6.33 1.36 6.66 0 7 C-1.33332095 4.3333581 -0.67102033 2.83319697 0 0 Z " fill="#55432E" transform="translate(9,36)"/>
<path d="M0 0 C4.62 0 9.24 0 14 0 C14 0.33 14 0.66 14 1 C11.03 1 8.06 1 5 1 C5 2.32 5 3.64 5 5 C3.68 5 2.36 5 1 5 C0.67 6.32 0.34 7.64 0 9 C0 6.03 0 3.06 0 0 Z " fill="#9E551B" transform="translate(36,27)"/>
<path d="M0 0 C4.29 0 8.58 0 13 0 C13.33 1.65 13.66 3.3 14 5 C12.02 5 10.04 5 8 5 C8 3.68 8 2.36 8 1 C5.36 1 2.72 1 0 1 C0 0.67 0 0.34 0 0 Z " fill="#4A2E17" transform="translate(92,99)"/>
<path d="M0 0 C1.32 0 2.64 0 4 0 C4.33 2.97 4.66 5.94 5 9 C3.35 9 1.7 9 0 9 C0 6.03 0 3.06 0 0 Z " fill="#2C1B0D" transform="translate(105,82)"/>
<path d="M0 0 C2.97 0.33 5.94 0.66 9 1 C9 2.32 9 3.64 9 5 C6.03 5 3.06 5 0 5 C0 3.35 0 1.7 0 0 Z " fill="#2B1A0D" transform="translate(41,22)"/>
<path d="M0 0 C0.33 1.32 0.66 2.64 1 4 C2.32 4 3.64 4 5 4 C5 5.32 5 6.64 5 8 C2.36 8 -0.28 8 -3 8 C-2.37240135 5.07120629 -1.41377341 2.63904371 0 0 Z " fill="#CC752A" transform="translate(35,19)"/>
<path d="M0 0 C1.32 0 2.64 0 4 0 C4 0.99 4 1.98 4 3 C6.97 3 9.94 3 13 3 C13 3.33 13 3.66 13 4 C10.03 4 7.06 4 4 4 C4 4.99 4 5.98 4 7 C2.68 7 1.36 7 0 7 C0 4.69 0 2.38 0 0 Z " fill="#D17B2F" transform="translate(19,19)"/>
<path d="M0 0 C2.97 0 5.94 0 9 0 C9 1.32 9 2.64 9 4 C6.03 4 3.06 4 0 4 C0 2.68 0 1.36 0 0 Z " fill="#85400E" transform="translate(91,91)"/>
<path d="M0 0 C1.65 0 3.3 0 5 0 C5 1.32 5 2.64 5 4 C6.65 4 8.3 4 10 4 C10 4.33 10 4.66 10 5 C4.72 5 -0.56 5 -6 5 C-6 4.67 -6 4.34 -6 4 C-4.02 4 -2.04 4 0 4 C0 2.68 0 1.36 0 0 Z " fill="#75512B" transform="translate(73,86)"/>
<path d="M0 0 C1.32 0 2.64 0 4 0 C4 2.97 4 5.94 4 9 C2.68 9 1.36 9 0 9 C0 6.03 0 3.06 0 0 Z " fill="#7D3D0E" transform="translate(101,82)"/>
<path d="M0 0 C1.32 0 2.64 0 4 0 C4 2.97 4 5.94 4 9 C2.68 9 1.36 9 0 9 C0 6.03 0 3.06 0 0 Z " fill="#A75518" transform="translate(105,55)"/>
<path d="M0 0 C2.97 0 5.94 0 9 0 C9 1.32 9 2.64 9 4 C6.03 4 3.06 4 0 4 C0 2.68 0 1.36 0 0 Z " fill="#A95819" transform="translate(96,23)"/>
<path d="M0 0 C2.97 0 5.94 0 9 0 C9 1.32 9 2.64 9 4 C6.03 4 3.06 4 0 4 C0 2.68 0 1.36 0 0 Z " fill="#AB591A" transform="translate(23,23)"/>
<path d="M0 0 C2.97 0 5.94 0 9 0 C9 1.32 9 2.64 9 4 C6.36 4 3.72 4 1 4 C0.67 2.68 0.34 1.36 0 0 Z " fill="#8C430F" transform="translate(36,105)"/>
<path d="M0 0 C1.65 0 3.3 0 5 0 C3.68 0.33 2.36 0.66 1 1 C1 2.32 1 3.64 1 5 C1.99 5 2.98 5 4 5 C4 6.32 4 7.64 4 9 C1.69 9.33 -0.62 9.66 -3 10 C-3.33 11.32 -3.66 12.64 -4 14 C-4 12.35 -4 10.7 -4 9 C-2.68 9 -1.36 9 0 9 C0 6.03 0 3.06 0 0 Z " fill="#AD5B1B" transform="translate(100,68)"/>
<path d="M0 0 C4.62 0 9.24 0 14 0 C14.33 1.65 14.66 3.3 15 5 C13.35 5 11.7 5 10 5 C10 3.68 10 2.36 10 1 C6.7 1 3.4 1 0 1 C0 0.67 0 0.34 0 0 Z " fill="#874513" transform="translate(91,27)"/>
<path d="M0 0 C0 1.32 0 2.64 0 4 C-2.97 4 -5.94 4 -9 4 C-9 3.01 -9 2.02 -9 1 C-6.04335481 -0.4783226 -3.25770263 -0.06032783 0 0 Z " fill="#2E1C0E" transform="translate(87,23)"/>
<path d="M0 0 C1.65 0 3.3 0 5 0 C5 1.32 5 2.64 5 4 C7.64 4 10.28 4 13 4 C13 4.33 13 4.66 13 5 C8.71 5 4.42 5 0 5 C0 3.35 0 1.7 0 0 Z " fill="#684827" transform="translate(50,86)"/>
<path d="M0 0 C0.33 0 0.66 0 1 0 C1 4.29 1 8.58 1 13 C-0.65 13 -2.3 13 -4 13 C-4 11.35 -4 9.7 -4 8 C-2.68 8 -1.36 8 0 8 C0 5.36 0 2.72 0 0 Z " fill="#9A531B" transform="translate(77,55)"/>
<path d="M0 0 C1.98 0 3.96 0 6 0 C5.01 0.495 5.01 0.495 4 1 C4 2.65 4 4.3 4 6 C2.68 6 1.36 6 0 6 C0 7.98 0 9.96 0 12 C-0.33 12 -0.66 12 -1 12 C-1.08159574 7.83861737 -0.98248524 4.0527516 0 0 Z " fill="#382818" transform="translate(110,41)"/>
<path d="M0 0 C2.64 0 5.28 0 8 0 C8 1.32 8 2.64 8 4 C5.36 4 2.72 4 0 4 C0 2.68 0 1.36 0 0 Z " fill="#C87227" transform="translate(23,114)"/>
<path d="M0 0 C2.64 0 5.28 0 8 0 C8 1.32 8 2.64 8 4 C5.36 4 2.72 4 0 4 C0 2.68 0 1.36 0 0 Z " fill="#2B1A0C" transform="translate(37,100)"/>
<path d="M0 0 C2.64 0 5.28 0 8 0 C8 1.32 8 2.64 8 4 C5.36 4 2.72 4 0 4 C0 2.68 0 1.36 0 0 Z " fill="#9D4F15" transform="translate(28,100)"/>
<path d="M0 0 C2.64 0 5.28 0 8 0 C8 1.32 8 2.64 8 4 C5.36 4 2.72 4 0 4 C0 2.68 0 1.36 0 0 Z " fill="#25170B" transform="translate(83,100)"/>
<path d="M0 0 C1.32 0 2.64 0 4 0 C4 2.64 4 5.28 4 8 C2.68 8 1.36 8 0 8 C0 5.36 0 2.72 0 0 Z " fill="#452912" transform="translate(63,82)"/>
<path d="M0 0 C1.32 0 2.64 0 4 0 C4 0.66 4 1.32 4 2 C3.01 2 2.02 2 1 2 C1 2.99 1 3.98 1 5 C3.97 5 6.94 5 10 5 C10 5.33 10 5.66 10 6 C4.06 6 -1.88 6 -8 6 C-8 5.67 -8 5.34 -8 5 C-4.535 4.505 -4.535 4.505 -1 4 C-0.67 2.68 -0.34 1.36 0 0 Z " fill="#7C684B" transform="translate(50,17)"/>
<path d="M0 0 C1.65 0 3.3 0 5 0 C5 1.32 5 2.64 5 4 C6.32 4.33 7.64 4.66 9 5 C6.03 5 3.06 5 0 5 C0 3.35 0 1.7 0 0 Z " fill="#553D23" transform="translate(109,18)"/>
<path d="M0 0 C2.64 0.33 5.28 0.66 8 1 C8 1.99 8 2.98 8 4 C5.36 4 2.72 4 0 4 C0 2.68 0 1.36 0 0 Z " fill="#2D1B0D" transform="translate(92,95)"/>
<path d="M0 0 C0.99 0 1.98 0 3 0 C3 2.64 3 5.28 3 8 C2.01 8 1.02 8 0 8 C-0.38063221 5.6739143 -0.71269945 3.33944736 -1 1 C-0.67 0.67 -0.34 0.34 0 0 Z " fill="#311E0E" transform="translate(19,46)"/>
<path d="M0 0 C1.65 0 3.3 0 5 0 C5 0.99 5 1.98 5 3 C4.01 3 3.02 3 2 3 C2 5.97 2 8.94 2 12 C2.99 12.33 3.98 12.66 5 13 C3.68 13 2.36 13 1 13 C0.67 8.71 0.34 4.42 0 0 Z " fill="#B25E1C" transform="translate(99,42)"/>
<path d="M0 0 C2.31 0 4.62 0 7 0 C7 1.32 7 2.64 7 4 C4.69 3.67 2.38 3.34 0 3 C0 2.01 0 1.02 0 0 Z " fill="#7C3C0E" transform="translate(21,28)"/>
<path d="M0 0 C2.475 0.495 2.475 0.495 5 1 C5 2.32 5 3.64 5 5 C3.35 5 1.7 5 0 5 C0 3.35 0 1.7 0 0 Z " fill="#332010" transform="translate(9,113)"/>
<path d="M0 0 C1.65 0 3.3 0 5 0 C5 1.65 5 3.3 5 5 C3.35 4.67 1.7 4.34 0 4 C0 2.68 0 1.36 0 0 Z " fill="#C26B22" transform="translate(100,113)"/>
<path d="M0 0 C2.64 0 5.28 0 8 0 C8 0.99 8 1.98 8 3 C5.36 3 2.72 3 0 3 C0 2.01 0 1.02 0 0 Z " fill="#88400E" transform="translate(83,105)"/>
<path d="M0 0 C1.65 0 3.3 0 5 0 C5 1.65 5 3.3 5 5 C3.35 4.67 1.7 4.34 0 4 C0 2.68 0 1.36 0 0 Z " fill="#3F2713" transform="translate(18,104)"/>
<path d="M0 0 C1.65 0 3.3 0 5 0 C4.67 1.65 4.34 3.3 4 5 C2.68 5 1.36 5 0 5 C0 3.35 0 1.7 0 0 Z " fill="#311E0E" transform="translate(105,104)"/>
<path d="M0 0 C0.33 0 0.66 0 1 0 C1 3.3 1 6.6 1 10 C-0.32 9.67 -1.64 9.34 -3 9 C-3 7.68 -3 6.36 -3 5 C-2.01 5 -1.02 5 0 5 C0 3.35 0 1.7 0 0 Z " fill="#B35F1C" transform="translate(27,41)"/>
<path d="M0 0 C1.65 0 3.3 0 5 0 C5 1.65 5 3.3 5 5 C3.35 5 1.7 5 0 5 C0 3.33333333 0 1.66666667 0 0 Z " fill="#C16C23" transform="translate(91,36)"/>
<path d="M0 0 C1.65 0 3.3 0 5 0 C5 1.32 5 2.64 5 4 C3.35 4 1.7 4 0 4 C0 2.68 0 1.36 0 0 Z " fill="#382210" transform="translate(23,100)"/>
<path d="M0 0 C1.65 0 3.3 0 5 0 C5 1.32 5 2.64 5 4 C3.35 4 1.7 4 0 4 C0 2.68 0 1.36 0 0 Z " fill="#E6A65D" transform="translate(73,91)"/>
<path d="M0 0 C1.32 0 2.64 0 4 0 C4 1.65 4 3.3 4 5 C2.68 5 1.36 5 0 5 C0 3.35 0 1.7 0 0 Z " fill="#382412" transform="translate(87,18)"/>
<path d="M0 0 C1.64350079 3.28700157 2.41321669 5.47930015 3 9 C2.01 9 1.02 9 0 9 C0 6.03 0 3.06 0 0 Z " fill="#BC6720" transform="translate(109,27)"/>
<path d="M0 0 C2 3 2 3 2 7 C1.01 7 0.02 7 -1 7 C-1.04254356 5.00045254 -1.04080783 2.99958364 -1 1 C-0.67 0.67 -0.34 0.34 0 0 Z " fill="#BC6620" transform="translate(16,29)"/>
<path d="" fill="#E2D7B6" transform="translate(0,0)"/>
<path d="" fill="#CDC1A7" transform="translate(0,0)"/>
</svg>
