<?xml version="1.0" encoding="UTF-8" standalone="no"?>
<svg
   width="128"
   height="128"
   viewBox="0 0 128 128"
   version="1.1"
   id="svg4"
   xmlns="http://www.w3.org/2000/svg"
   xmlns:svg="http://www.w3.org/2000/svg">
  <defs
     id="defs8" />
  <path
     d="M 64,0 C 28.656,0 0,28.656 0,64 0,99.344 28.656,128 64,128 99.344,128 128,99.344 128,64 128,28.656 99.344,0 64,0 Z m 0.0036,108.32475 c -4.923088,0 -8.91864,-3.99556 -8.91864,-8.918638 0,-4.923088 3.995552,-8.91864 8.91864,-8.91864 4.930219,0 8.918635,3.995552 8.918635,8.91864 0,4.923078 -3.988416,8.918638 -8.918635,8.918638 z M 77.995157,66.029008 C 71.5452,72.985541 71.2384,76.831259 71.324021,81.568837 H 57.018528 c -0.05013,-10.523989 0.14272,-15.16168 10.210053,-24.743861 4.088304,-3.881392 7.31328,-6.956539 6.863782,-12.992672 -0.413814,-5.7436 -5.20848,-8.747397 -9.739147,-8.747397 -5.058651,0 -10.973493,3.760096 -10.973493,14.36257 H 39.038555 c 0,-17.123781 10.053088,-28.18289 25.614325,-28.18289 7.391765,0 13.855995,2.418736 18.194016,6.81384 4.066901,4.123973 6.171696,9.789093 6.093216,16.396021 -0.114187,9.867579 -6.114619,16.346075 -10.944955,21.55456 z"
     id="path2"
     style="fill:#808080;fill-opacity:1;stroke-width:5.33333" />
</svg>
