<?xml version="1.0" encoding="UTF-8" standalone="no"?>
<svg
   width="900"
   height="600"
   viewBox="0 0 30 20"
   version="1.1"
   id="svg17"
   sodipodi:docname="lang_zh.svg"
   inkscape:version="1.1.2 (0a00cf5339, 2022-02-04, custom)"
   xmlns:inkscape="http://www.inkscape.org/namespaces/inkscape"
   xmlns:sodipodi="http://sodipodi.sourceforge.net/DTD/sodipodi-0.dtd"
   xmlns="http://www.w3.org/2000/svg"
   xmlns:svg="http://www.w3.org/2000/svg">
  <sodipodi:namedview
     id="namedview19"
     pagecolor="#353535"
     bordercolor="#666666"
     borderopacity="1.0"
     inkscape:pageshadow="2"
     inkscape:pageopacity="1"
     inkscape:pagecheckerboard="false"
     showgrid="false"
     inkscape:zoom="1.8855556"
     inkscape:cx="468.03182"
     inkscape:cy="283.736"
     inkscape:current-layer="svg17" />
  <defs
     id="defs3">
    <path
       id="a"
       d="M0-1L.588.809-.952-.309H.952L-.588.809z"
       fill="#ffde00" />
  </defs>
  <path
     fill="#de2910"
     d="M0 0h30v20H0z"
     id="path5" />
  <g
     id="g42554">
    <path
       id="use7"
       d="M 5,2 6.764,7.427 2.144,4.073 h 5.712 l -4.62,3.354 z"
       fill="#ffde00"
       style="stroke-width:3" />
    <path
       id="use9"
       d="M 10.391203,1.0796109 10.224436,2.9744497 9.2447212,1.3429835 10.996895,2.0880366 9.1422116,2.5142698 Z"
       fill="#ffde00" />
    <path
       id="use11"
       d="M 12.717773,3.3040491 11.828759,4.9856794 11.558932,3.1018754 12.884666,4.4684939 11.009924,4.1415915 Z"
       fill="#ffde00" />
    <path
       id="use13"
       d="M 12.93945,6.6576593 11.441779,7.8303512 11.963888,6.000344 12.616812,7.7888929 11.038503,6.7256593 Z"
       fill="#ffde00" />
    <path
       id="use15"
       d="M 10.352936,8.0645443 10.264867,9.9646677 9.2183586,8.3752203 10.999913,9.0469928 9.1644953,9.5497494 Z"
       fill="#ffde00" />
  </g>
</svg>
