<?xml version="1.0" encoding="UTF-8" standalone="no"?>
<svg
   width="128"
   height="128"
   fill-rule="evenodd"
   clip-rule="evenodd"
   version="1.1"
   id="svg1281"
   sodipodi:docname="delete.svg"
   inkscape:version="1.2 (dc2aedaf03, 2022-05-15)"
   xmlns:inkscape="http://www.inkscape.org/namespaces/inkscape"
   xmlns:sodipodi="http://sodipodi.sourceforge.net/DTD/sodipodi-0.dtd"
   xmlns="http://www.w3.org/2000/svg"
   xmlns:svg="http://www.w3.org/2000/svg">
  <defs
     id="defs1285" />
  <sodipodi:namedview
     id="namedview1283"
     pagecolor="#ffffff"
     bordercolor="#666666"
     borderopacity="1.0"
     inkscape:showpageshadow="2"
     inkscape:pageopacity="0.0"
     inkscape:pagecheckerboard="0"
     inkscape:deskcolor="#d1d1d1"
     showgrid="false"
     inkscape:zoom="9.8333333"
     inkscape:cx="52.525424"
     inkscape:cy="62.745763"
     inkscape:current-layer="svg1281" />
  <path
     d="M 93.166667,114 H 34.833334 C 30.233334,114 26.5,110.26666 26.5,105.66666 V 39 h 75 v 66.66666 c 0,4.6 -3.733333,8.33334 -8.333333,8.33334 m -37.5,-58.333334 C 55.666667,53.366666 53.8,51.5 51.5,51.5 c -2.3,0 -4.166666,1.866666 -4.166666,4.166666 v 37.5 c 0,2.3 1.866666,4.166667 4.166666,4.166667 2.3,0 4.166667,-1.866667 4.166667,-4.166667 z m 25,0 C 80.666667,53.366666 78.8,51.5 76.5,51.5 c -2.3,0 -4.166667,1.866666 -4.166667,4.166666 v 37.5 c 0,2.3 1.866667,4.166667 4.166667,4.166667 2.3,0 4.166667,-1.866667 4.166667,-4.166667 z M 105.66667,34.833333 H 22.333333 V 26.5 h 25.000001 v -6.25 c 0,-3.445833 2.804166,-6.25 6.25,-6.25 h 20.833333 c 3.4375,0 6.25,2.795833 6.25,6.25 V 26.5 H 105.66667 Z M 55.666667,26.5 H 72.333333 V 22.333333 H 55.666667 Z"
     id="path1279"
     style="fill:#808080;fill-opacity:1;stroke-width:1" />
</svg>
